{
    "asset": {
        "generator": "FBX2glTF v0.9.6",
        "version": "2.0"
    },
    "scene": 0,
    "extensionsUsed": [
        "KHR_lights_punctual"
    ],
    "buffers": [
        {
            "byteLength": 18516640,
            "uri": "buffer.bin"
        }
    ],
    "bufferViews": [
        {
            "buffer": 0,
            "byteLength": 7900416,
            "byteOffset": 0,
            "target": 34963
        },
        {
            "buffer": 0,
            "byteLength": 3977640,
            "byteOffset": 7900416,
            "target": 34962
        },
        {
            "buffer": 0,
            "byteLength": 3977640,
            "byteOffset": 11878056,
            "target": 34962
        },
        {
            "buffer": 0,
            "byteLength": 2651760,
            "byteOffset": 15855696,
            "target": 34962
        },
        {
            "buffer": 0,
            "byteLength": 1920,
            "byteOffset": 18507456,
            "target": 34963
        },
        {
            "buffer": 0,
            "byteLength": 2724,
            "byteOffset": 18509376,
            "target": 34962
        },
        {
            "buffer": 0,
            "byteLength": 2724,
            "byteOffset": 18512100,
            "target": 34962
        },
        {
            "buffer": 0,
            "byteLength": 1816,
            "byteOffset": 18514824,
            "target": 34962
        }
    ],
    "scenes": [
        {
            "name": "Root Scene",
            "nodes": [
                0
            ]
        }
    ],
    "accessors": [
        {
            "componentType": 5125,
            "type": "SCALAR",
            "count": 1975104,
            "bufferView": 0,
            "byteOffset": 0
        },
        {
            "componentType": 5126,
            "type": "VEC3",
            "count": 331470,
            "bufferView": 1,
            "byteOffset": 0,
            "min": [
                -0.0111426906660199,
                -0.0120352506637573,
                -0.0113091934472322
            ],
            "max": [
                0.0111655425280333,
                0.0254495181143284,
                0.0111194252967834
            ]
        },
        {
            "componentType": 5126,
            "type": "VEC3",
            "count": 331470,
            "bufferView": 2,
            "byteOffset": 0
        },
        {
            "componentType": 5126,
            "type": "VEC2",
            "count": 331470,
            "bufferView": 3,
            "byteOffset": 0
        },
        {
            "componentType": 5123,
            "type": "SCALAR",
            "count": 960,
            "bufferView": 4,
            "byteOffset": 0
        },
        {
            "componentType": 5126,
            "type": "VEC3",
            "count": 227,
            "bufferView": 5,
            "byteOffset": 0,
            "min": [
                -0.00912190228700638,
                -0.0100222276523709,
                -0.00912190228700638
            ],
            "max": [
                0.00912190228700638,
                0.0234755054116249,
                0.00912190228700638
            ]
        },
        {
            "componentType": 5126,
            "type": "VEC3",
            "count": 227,
            "bufferView": 6,
            "byteOffset": 0
        },
        {
            "componentType": 5126,
            "type": "VEC2",
            "count": 227,
            "bufferView": 7,
            "byteOffset": 0
        }
    ],
    "samplers": [
        {}
    ],
    "materials": [
        {
            "name": "Material.002",
            "alphaMode": "OPAQUE",
            "extras": {
                "fromFBX": {
                    "shadingModel": "Phong",
                    "isTruePBR": false
                }
            },
            "pbrMetallicRoughness": {
                "baseColorFactor": [
                    0.84808075428009,
                    0.686187982559204,
                    0.200040370225906,
                    1.0
                ],
                "metallicFactor": 0.400000005960464,
                "roughnessFactor": 1.0
            }
        },
        {
            "name": "Material.001",
            "alphaMode": "OPAQUE",
            "extras": {
                "fromFBX": {
                    "shadingModel": "Phong",
                    "isTruePBR": false
                }
            },
            "pbrMetallicRoughness": {
                "baseColorFactor": [
                    0.514917194843292,
                    0.417884796857834,
                    0.124771893024445,
                    1.0
                ],
                "metallicFactor": 0.400000005960464,
                "roughnessFactor": 1.0
            }
        }
    ],
    "meshes": [
        {
            "name": "Cube",
            "primitives": [
                {
                    "material": 0,
                    "mode": 4,
                    "attributes": {
                        "NORMAL": 2,
                        "POSITION": 1,
                        "TEXCOORD_0": 3
                    },
                    "indices": 0
                }
            ]
        },
        {
            "name": "Cube.002",
            "primitives": [
                {
                    "material": 1,
                    "mode": 4,
                    "attributes": {
                        "NORMAL": 6,
                        "POSITION": 5,
                        "TEXCOORD_0": 7
                    },
                    "indices": 4
                }
            ]
        }
    ],
    "nodes": [
        {
            "name": "RootNode",
            "translation": [
                0.0,
                0.0,
                0.0
            ],
            "rotation": [
                0.0,
                0.0,
                0.0,
                1.0
            ],
            "scale": [
                1.0,
                1.0,
                1.0
            ],
            "children": [
                1,
                2,
                3
            ]
        },
        {
            "name": "Cube",
            "translation": [
                0.0,
                0.0,
                0.0
            ],
            "rotation": [
                -0.707106828689575,
                0.0,
                0.0,
                0.707106709480286
            ],
            "scale": [
                100.0,
                100.0,
                100.0
            ],
            "mesh": 0
        },
        {
            "name": "Cube.002",
            "translation": [
                0.0,
                0.0,
                0.0
            ],
            "rotation": [
                -0.707106828689575,
                0.0,
                0.0,
                0.707106709480286
            ],
            "scale": [
                100.0,
                100.0,
                100.0
            ],
            "mesh": 1
        },
        {
            "name": "Point",
            "translation": [
                0.0,
                2.81462097167969,
                1.10798454284668
            ],
            "rotation": [
                -3.77489506320217e-08,
                -0.0,
                0.0,
                1.0
            ],
            "scale": [
                100.0,
                100.0,
                100.0
            ],
            "extensions": {
                "KHR_lights_punctual": {
                    "light": 0
                }
            }
        }
    ],
    "extensions": {
        "KHR_lights_punctual": {
            "lights": [
                {
                    "name": "",
                    "color": [
                        1.0,
                        1.0,
                        1.0
                    ],
                    "intensity": 2.0,
                    "type": "point"
                }
            ]
        }
    }
}