{
    "asset": {
        "generator": "FBX2glTF v0.9.6",
        "version": "2.0"
    },
    "scene": 0,
    "extensionsUsed": [
        "KHR_lights_punctual"
    ],
    "buffers": [
        {
            "byteLength": 2599068,
            "uri": "buffer.bin"
        }
    ],
    "bufferViews": [
        {
            "buffer": 0,
            "byteLength": 684570,
            "byteOffset": 0,
            "target": 34963
        },
        {
            "buffer": 0,
            "byteLength": 693120,
            "byteOffset": 684572,
            "target": 34962
        },
        {
            "buffer": 0,
            "byteLength": 693120,
            "byteOffset": 1377692,
            "target": 34962
        },
        {
            "buffer": 0,
            "byteLength": 462080,
            "byteOffset": 2070812,
            "target": 34962
        },
        {
            "buffer": 0,
            "byteLength": 11520,
            "byteOffset": 2532892,
            "target": 34963
        },
        {
            "buffer": 0,
            "byteLength": 20496,
            "byteOffset": 2544412,
            "target": 34962
        },
        {
            "buffer": 0,
            "byteLength": 20496,
            "byteOffset": 2564908,
            "target": 34962
        },
        {
            "buffer": 0,
            "byteLength": 13664,
            "byteOffset": 2585404,
            "target": 34962
        }
    ],
    "scenes": [
        {
            "name": "Root Scene",
            "nodes": [
                0
            ]
        }
    ],
    "accessors": [
        {
            "componentType": 5123,
            "type": "SCALAR",
            "count": 342285,
            "bufferView": 0,
            "byteOffset": 0
        },
        {
            "componentType": 5126,
            "type": "VEC3",
            "count": 57760,
            "bufferView": 1,
            "byteOffset": 0,
            "min": [
                -0.0115693705156446,
                -0.0114264143630862,
                -0.0114636160433292
            ],
            "max": [
                0.0114058572798967,
                0.0113093424588442,
                0.011561069637537
            ]
        },
        {
            "componentType": 5126,
            "type": "VEC3",
            "count": 57760,
            "bufferView": 2,
            "byteOffset": 0
        },
        {
            "componentType": 5126,
            "type": "VEC2",
            "count": 57760,
            "bufferView": 3,
            "byteOffset": 0
        },
        {
            "componentType": 5123,
            "type": "SCALAR",
            "count": 5760,
            "bufferView": 4,
            "byteOffset": 0
        },
        {
            "componentType": 5126,
            "type": "VEC3",
            "count": 1708,
            "bufferView": 5,
            "byteOffset": 0,
            "min": [
                -0.00920113362371922,
                -0.00951933674514294,
                -0.00946709420531988
            ],
            "max": [
                0.00906365364789963,
                0.00940454844385386,
                0.00959115289151669
            ]
        },
        {
            "componentType": 5126,
            "type": "VEC3",
            "count": 1708,
            "bufferView": 6,
            "byteOffset": 0
        },
        {
            "componentType": 5126,
            "type": "VEC2",
            "count": 1708,
            "bufferView": 7,
            "byteOffset": 0
        }
    ],
    "samplers": [
        {}
    ],
    "materials": [
        {
            "name": "Material.001",
            "alphaMode": "OPAQUE",
            "extras": {
                "fromFBX": {
                    "shadingModel": "Phong",
                    "isTruePBR": false
                }
            },
            "pbrMetallicRoughness": {
                "baseColorFactor": [
                    0.0383940562605858,
                    0.115283235907555,
                    0.609487771987915,
                    1.0
                ],
                "metallicFactor": 0.400000005960464,
                "roughnessFactor": 1.0
            }
        },
        {
            "name": "Material.002",
            "alphaMode": "OPAQUE",
            "extras": {
                "fromFBX": {
                    "shadingModel": "Phong",
                    "isTruePBR": false
                }
            },
            "pbrMetallicRoughness": {
                "baseColorFactor": [
                    0.0271891839802265,
                    0.242863729596138,
                    0.0216522552073002,
                    1.0
                ],
                "metallicFactor": 0.400000005960464,
                "roughnessFactor": 1.0
            }
        }
    ],
    "meshes": [
        {
            "name": "Icosphere",
            "primitives": [
                {
                    "material": 0,
                    "mode": 4,
                    "attributes": {
                        "NORMAL": 2,
                        "POSITION": 1,
                        "TEXCOORD_0": 3
                    },
                    "indices": 0
                }
            ]
        },
        {
            "name": "Icosphere.001",
            "primitives": [
                {
                    "material": 1,
                    "mode": 4,
                    "attributes": {
                        "NORMAL": 6,
                        "POSITION": 5,
                        "TEXCOORD_0": 7
                    },
                    "indices": 4
                }
            ]
        }
    ],
    "nodes": [
        {
            "name": "RootNode",
            "translation": [
                0.0,
                0.0,
                0.0
            ],
            "rotation": [
                0.0,
                0.0,
                0.0,
                1.0
            ],
            "scale": [
                1.0,
                1.0,
                1.0
            ],
            "children": [
                1,
                2,
                3
            ]
        },
        {
            "name": "Icosphere",
            "translation": [
                0.0,
                0.0,
                0.0
            ],
            "rotation": [
                -0.707106828689575,
                0.0,
                0.0,
                0.707106709480286
            ],
            "scale": [
                100.0,
                100.0,
                100.0
            ],
            "mesh": 0
        },
        {
            "name": "Icosphere.001",
            "translation": [
                0.0,
                0.0,
                0.0
            ],
            "rotation": [
                -0.707106828689575,
                0.0,
                0.0,
                0.707106709480286
            ],
            "scale": [
                97.8614120483398,
                97.8614120483398,
                97.8614120483398
            ],
            "mesh": 1
        },
        {
            "name": "Point",
            "translation": [
                0.0,
                3.57733201980591,
                0.0
            ],
            "rotation": [
                -3.77489506320217e-08,
                -0.0,
                0.0,
                1.0
            ],
            "scale": [
                100.0,
                100.0,
                100.0
            ],
            "extensions": {
                "KHR_lights_punctual": {
                    "light": 0
                }
            }
        }
    ],
    "extensions": {
        "KHR_lights_punctual": {
            "lights": [
                {
                    "name": "",
                    "color": [
                        1.0,
                        1.0,
                        1.0
                    ],
                    "intensity": 5.0,
                    "type": "point"
                }
            ]
        }
    }
}