{
    "asset": {
        "generator": "FBX2glTF v0.9.6",
        "version": "2.0"
    },
    "scene": 0,
    "extensionsUsed": [
        "KHR_lights_punctual"
    ],
    "buffers": [
        {
            "byteLength": 1655700,
            "uri": "buffer.bin"
        }
    ],
    "bufferViews": [
        {
            "buffer": 0,
            "byteLength": 58404,
            "byteOffset": 0,
            "target": 34963
        },
        {
            "buffer": 0,
            "byteLength": 67824,
            "byteOffset": 58404,
            "target": 34962
        },
        {
            "buffer": 0,
            "byteLength": 67824,
            "byteOffset": 126228,
            "target": 34962
        },
        {
            "buffer": 0,
            "byteLength": 319920,
            "byteOffset": 194052,
            "target": 34963
        },
        {
            "buffer": 0,
            "byteLength": 371520,
            "byteOffset": 513972,
            "target": 34962
        },
        {
            "buffer": 0,
            "byteLength": 371520,
            "byteOffset": 885492,
            "target": 34962
        },
        {
            "buffer": 0,
            "byteLength": 2688,
            "byteOffset": 1257012,
            "target": 34963
        },
        {
            "buffer": 0,
            "byteLength": 2712,
            "byteOffset": 1259700,
            "target": 34962
        },
        {
            "buffer": 0,
            "byteLength": 2712,
            "byteOffset": 1262412,
            "target": 34962
        },
        {
            "buffer": 0,
            "byteLength": 25668,
            "byteOffset": 1265124,
            "target": 34963
        },
        {
            "buffer": 0,
            "byteLength": 29808,
            "byteOffset": 1290792,
            "target": 34962
        },
        {
            "buffer": 0,
            "byteLength": 29808,
            "byteOffset": 1320600,
            "target": 34962
        },
        {
            "buffer": 0,
            "byteLength": 17484,
            "byteOffset": 1350408,
            "target": 34963
        },
        {
            "buffer": 0,
            "byteLength": 20304,
            "byteOffset": 1367892,
            "target": 34962
        },
        {
            "buffer": 0,
            "byteLength": 20304,
            "byteOffset": 1388196,
            "target": 34962
        },
        {
            "buffer": 0,
            "byteLength": 23064,
            "byteOffset": 1408500,
            "target": 34963
        },
        {
            "buffer": 0,
            "byteLength": 26784,
            "byteOffset": 1431564,
            "target": 34962
        },
        {
            "buffer": 0,
            "byteLength": 26784,
            "byteOffset": 1458348,
            "target": 34962
        },
        {
            "buffer": 0,
            "byteLength": 17484,
            "byteOffset": 1485132,
            "target": 34963
        },
        {
            "buffer": 0,
            "byteLength": 20304,
            "byteOffset": 1502616,
            "target": 34962
        },
        {
            "buffer": 0,
            "byteLength": 20304,
            "byteOffset": 1522920,
            "target": 34962
        },
        {
            "buffer": 0,
            "byteLength": 18600,
            "byteOffset": 1543224,
            "target": 34963
        },
        {
            "buffer": 0,
            "byteLength": 21600,
            "byteOffset": 1561824,
            "target": 34962
        },
        {
            "buffer": 0,
            "byteLength": 21600,
            "byteOffset": 1583424,
            "target": 34962
        },
        {
            "buffer": 0,
            "byteLength": 15252,
            "byteOffset": 1605024,
            "target": 34963
        },
        {
            "buffer": 0,
            "byteLength": 17712,
            "byteOffset": 1620276,
            "target": 34962
        },
        {
            "buffer": 0,
            "byteLength": 17712,
            "byteOffset": 1637988,
            "target": 34962
        }
    ],
    "scenes": [
        {
            "name": "Root Scene",
            "nodes": [
                0
            ]
        }
    ],
    "accessors": [
        {
            "componentType": 5123,
            "type": "SCALAR",
            "count": 29202,
            "bufferView": 0,
            "byteOffset": 0
        },
        {
            "componentType": 5126,
            "type": "VEC3",
            "count": 5652,
            "bufferView": 1,
            "byteOffset": 0,
            "min": [
                -0.00934809818863869,
                -0.0193790625780821,
                -0.00937409419566393
            ],
            "max": [
                0.00945806596428156,
                0.00953005813062191,
                0.00921526085585356
            ]
        },
        {
            "componentType": 5126,
            "type": "VEC3",
            "count": 5652,
            "bufferView": 2,
            "byteOffset": 0
        },
        {
            "componentType": 5123,
            "type": "SCALAR",
            "count": 159960,
            "bufferView": 3,
            "byteOffset": 0
        },
        {
            "componentType": 5126,
            "type": "VEC3",
            "count": 30960,
            "bufferView": 4,
            "byteOffset": 0,
            "min": [
                -0.00947233848273754,
                -0.0195816792547703,
                -0.00948222354054451
            ],
            "max": [
                0.00951159000396729,
                0.00964757986366749,
                0.00952477194368839
            ]
        },
        {
            "componentType": 5126,
            "type": "VEC3",
            "count": 30960,
            "bufferView": 5,
            "byteOffset": 0
        },
        {
            "componentType": 5123,
            "type": "SCALAR",
            "count": 1344,
            "bufferView": 6,
            "byteOffset": 0
        },
        {
            "componentType": 5126,
            "type": "VEC3",
            "count": 226,
            "bufferView": 7,
            "byteOffset": 0,
            "min": [
                -0.00841273553669453,
                -0.0187113080173731,
                -0.00841273553669453
            ],
            "max": [
                0.00841273553669453,
                0.00869455188512802,
                0.00841273460537195
            ]
        },
        {
            "componentType": 5126,
            "type": "VEC3",
            "count": 226,
            "bufferView": 8,
            "byteOffset": 0
        },
        {
            "componentType": 5123,
            "type": "SCALAR",
            "count": 12834,
            "bufferView": 9,
            "byteOffset": 0
        },
        {
            "componentType": 5126,
            "type": "VEC3",
            "count": 2484,
            "bufferView": 10,
            "byteOffset": 0,
            "min": [
                -0.00953653920441866,
                -0.017390264198184,
                -0.00937198102474213
            ],
            "max": [
                0.00914959888905287,
                0.00924547016620636,
                0.00941086001694202
            ]
        },
        {
            "componentType": 5126,
            "type": "VEC3",
            "count": 2484,
            "bufferView": 11,
            "byteOffset": 0
        },
        {
            "componentType": 5123,
            "type": "SCALAR",
            "count": 8742,
            "bufferView": 12,
            "byteOffset": 0
        },
        {
            "componentType": 5126,
            "type": "VEC3",
            "count": 1692,
            "bufferView": 13,
            "byteOffset": 0,
            "min": [
                -0.00899283587932587,
                -0.0164857525378466,
                -0.0091505479067564
            ],
            "max": [
                0.00925586838275194,
                0.00943976826965809,
                0.00635242089629173
            ]
        },
        {
            "componentType": 5126,
            "type": "VEC3",
            "count": 1692,
            "bufferView": 14,
            "byteOffset": 0
        },
        {
            "componentType": 5123,
            "type": "SCALAR",
            "count": 11532,
            "bufferView": 15,
            "byteOffset": 0
        },
        {
            "componentType": 5126,
            "type": "VEC3",
            "count": 2232,
            "bufferView": 16,
            "byteOffset": 0,
            "min": [
                -0.00898191705346107,
                -0.0182077623903751,
                -0.00926984660327435
            ],
            "max": [
                0.00913527328521013,
                0.00952883251011372,
                0.00941829942166805
            ]
        },
        {
            "componentType": 5126,
            "type": "VEC3",
            "count": 2232,
            "bufferView": 17,
            "byteOffset": 0
        },
        {
            "componentType": 5123,
            "type": "SCALAR",
            "count": 8742,
            "bufferView": 18,
            "byteOffset": 0
        },
        {
            "componentType": 5126,
            "type": "VEC3",
            "count": 1692,
            "bufferView": 19,
            "byteOffset": 0,
            "min": [
                -0.00936067197471857,
                -0.019027654081583,
                -0.00932055339217186
            ],
            "max": [
                0.00933711230754852,
                0.00927326921373606,
                0.00943868327885866
            ]
        },
        {
            "componentType": 5126,
            "type": "VEC3",
            "count": 1692,
            "bufferView": 20,
            "byteOffset": 0
        },
        {
            "componentType": 5123,
            "type": "SCALAR",
            "count": 9300,
            "bufferView": 21,
            "byteOffset": 0
        },
        {
            "componentType": 5126,
            "type": "VEC3",
            "count": 1800,
            "bufferView": 22,
            "byteOffset": 0,
            "min": [
                -0.00901606027036905,
                -0.0185282155871391,
                -0.00942139886319637
            ],
            "max": [
                0.00916410889476538,
                0.00904775504022837,
                0.00898671336472034
            ]
        },
        {
            "componentType": 5126,
            "type": "VEC3",
            "count": 1800,
            "bufferView": 23,
            "byteOffset": 0
        },
        {
            "componentType": 5123,
            "type": "SCALAR",
            "count": 7626,
            "bufferView": 24,
            "byteOffset": 0
        },
        {
            "componentType": 5126,
            "type": "VEC3",
            "count": 1476,
            "bufferView": 25,
            "byteOffset": 0,
            "min": [
                -0.00903823506087065,
                -0.0155469793826342,
                -0.00914830528199673
            ],
            "max": [
                0.00894661247730255,
                0.00963966734707355,
                0.00890172179788351
            ]
        },
        {
            "componentType": 5126,
            "type": "VEC3",
            "count": 1476,
            "bufferView": 26,
            "byteOffset": 0
        }
    ],
    "samplers": [
        {}
    ],
    "materials": [
        {
            "name": "Material.004",
            "alphaMode": "OPAQUE",
            "extras": {
                "fromFBX": {
                    "shadingModel": "Phong",
                    "isTruePBR": false
                }
            },
            "pbrMetallicRoughness": {
                "baseColorFactor": [
                    0.151694744825363,
                    0.43387559056282,
                    0.24845777451992,
                    1.0
                ],
                "metallicFactor": 0.400000005960464,
                "roughnessFactor": 1.0
            }
        },
        {
            "name": "Material",
            "alphaMode": "OPAQUE",
            "extras": {
                "fromFBX": {
                    "shadingModel": "Phong",
                    "isTruePBR": false
                }
            },
            "pbrMetallicRoughness": {
                "baseColorFactor": [
                    0.257752686738968,
                    0.554217100143433,
                    0.0997586622834206,
                    1.0
                ],
                "metallicFactor": 0.400000005960464,
                "roughnessFactor": 1.0
            }
        },
        {
            "name": "Material.006",
            "alphaMode": "OPAQUE",
            "extras": {
                "fromFBX": {
                    "shadingModel": "Phong",
                    "isTruePBR": false
                }
            },
            "pbrMetallicRoughness": {
                "baseColorFactor": [
                    0.121739476919174,
                    0.565024495124817,
                    0.0993679016828537,
                    1.0
                ],
                "metallicFactor": 0.400000005960464,
                "roughnessFactor": 1.0
            }
        },
        {
            "name": "Material.005",
            "alphaMode": "OPAQUE",
            "extras": {
                "fromFBX": {
                    "shadingModel": "Phong",
                    "isTruePBR": false
                }
            },
            "pbrMetallicRoughness": {
                "baseColorFactor": [
                    0.0166878290474415,
                    0.125965476036072,
                    0.0181079562753439,
                    1.0
                ],
                "metallicFactor": 0.400000005960464,
                "roughnessFactor": 1.0
            }
        },
        {
            "name": "Material.007",
            "alphaMode": "OPAQUE",
            "extras": {
                "fromFBX": {
                    "shadingModel": "Phong",
                    "isTruePBR": false
                }
            },
            "pbrMetallicRoughness": {
                "baseColorFactor": [
                    0.0435704365372658,
                    0.236274480819702,
                    0.0191615652292967,
                    1.0
                ],
                "metallicFactor": 0.400000005960464,
                "roughnessFactor": 1.0
            }
        },
        {
            "name": "Material.008",
            "alphaMode": "OPAQUE",
            "extras": {
                "fromFBX": {
                    "shadingModel": "Phong",
                    "isTruePBR": false
                }
            },
            "pbrMetallicRoughness": {
                "baseColorFactor": [
                    0.67853444814682,
                    0.780826926231384,
                    0.10254430025816,
                    1.0
                ],
                "metallicFactor": 0.400000005960464,
                "roughnessFactor": 1.0
            }
        },
        {
            "name": "Material.003",
            "alphaMode": "OPAQUE",
            "extras": {
                "fromFBX": {
                    "shadingModel": "Phong",
                    "isTruePBR": false
                }
            },
            "pbrMetallicRoughness": {
                "baseColorFactor": [
                    0.106172502040863,
                    0.198935195803642,
                    0.0475852303206921,
                    1.0
                ],
                "metallicFactor": 0.400000005960464,
                "roughnessFactor": 1.0
            }
        },
        {
            "name": "Material.002",
            "alphaMode": "OPAQUE",
            "extras": {
                "fromFBX": {
                    "shadingModel": "Phong",
                    "isTruePBR": false
                }
            },
            "pbrMetallicRoughness": {
                "baseColorFactor": [
                    0.654935896396637,
                    1.0,
                    0.207205206155777,
                    1.0
                ],
                "metallicFactor": 0.400000005960464,
                "roughnessFactor": 1.0
            }
        }
    ],
    "meshes": [
        {
            "name": "Cube",
            "primitives": [
                {
                    "material": 0,
                    "mode": 4,
                    "attributes": {
                        "NORMAL": 2,
                        "POSITION": 1
                    },
                    "indices": 0
                },
                {
                    "material": 1,
                    "mode": 4,
                    "attributes": {
                        "NORMAL": 5,
                        "POSITION": 4
                    },
                    "indices": 3
                },
                {
                    "material": 2,
                    "mode": 4,
                    "attributes": {
                        "NORMAL": 11,
                        "POSITION": 10
                    },
                    "indices": 9
                },
                {
                    "material": 3,
                    "mode": 4,
                    "attributes": {
                        "NORMAL": 14,
                        "POSITION": 13
                    },
                    "indices": 12
                },
                {
                    "material": 4,
                    "mode": 4,
                    "attributes": {
                        "NORMAL": 17,
                        "POSITION": 16
                    },
                    "indices": 15
                },
                {
                    "material": 5,
                    "mode": 4,
                    "attributes": {
                        "NORMAL": 20,
                        "POSITION": 19
                    },
                    "indices": 18
                },
                {
                    "material": 6,
                    "mode": 4,
                    "attributes": {
                        "NORMAL": 23,
                        "POSITION": 22
                    },
                    "indices": 21
                },
                {
                    "material": 7,
                    "mode": 4,
                    "attributes": {
                        "NORMAL": 26,
                        "POSITION": 25
                    },
                    "indices": 24
                }
            ]
        },
        {
            "name": "Cube.001",
            "primitives": [
                {
                    "material": 1,
                    "mode": 4,
                    "attributes": {
                        "NORMAL": 8,
                        "POSITION": 7
                    },
                    "indices": 6
                }
            ]
        }
    ],
    "nodes": [
        {
            "name": "RootNode",
            "translation": [
                0.0,
                0.0,
                0.0
            ],
            "rotation": [
                0.0,
                0.0,
                0.0,
                1.0
            ],
            "scale": [
                1.0,
                1.0,
                1.0
            ],
            "children": [
                1,
                2,
                3
            ]
        },
        {
            "name": "Cube",
            "translation": [
                0.0,
                0.0,
                -0.0466747283935547
            ],
            "rotation": [
                -0.707106828689575,
                0.0,
                0.0,
                0.707106709480286
            ],
            "scale": [
                101.443969726562,
                101.443969726562,
                101.443969726562
            ],
            "mesh": 0
        },
        {
            "name": "Cube.001",
            "translation": [
                0.0,
                0.0,
                -0.0466747283935547
            ],
            "rotation": [
                -0.707106828689575,
                0.0,
                0.0,
                0.707106709480286
            ],
            "scale": [
                101.443954467773,
                101.443954467773,
                101.443954467773
            ],
            "mesh": 1
        },
        {
            "name": "Point",
            "translation": [
                0.0,
                2.04950547218323,
                -0.930877447128296
            ],
            "rotation": [
                -3.77489506320217e-08,
                -0.0,
                0.0,
                1.0
            ],
            "scale": [
                100.0,
                100.0,
                100.0
            ],
            "extensions": {
                "KHR_lights_punctual": {
                    "light": 0
                }
            }
        }
    ],
    "extensions": {
        "KHR_lights_punctual": {
            "lights": [
                {
                    "name": "",
                    "color": [
                        1.0,
                        1.0,
                        1.0
                    ],
                    "intensity": 1.0,
                    "type": "point"
                }
            ]
        }
    }
}